<svg width="24" height="24" viewBox="0 0 24 24" fill="none" xmlns="http://www.w3.org/2000/svg"><rect width="24" height="24" fill="none" rx="0" ry="0"></rect><path fill-rule="evenodd" clip-rule="evenodd" d="M13.7322 15.1598C13.4979 14.9255 13.4979 14.5456 13.7322 14.3113L14.0435 14L16.1867 11.8568L16.4193 11.6243C16.6536 11.39 17.0335 11.39 17.2678 11.6243V11.6243C17.5021 11.8586 17.5021 12.2385 17.2678 12.4728L15.8242 13.9164L14.5808 15.1598C14.3465 15.3941 13.9666 15.3941 13.7322 15.1598V15.1598Z" fill="#fad000"></path><path fill-rule="evenodd" clip-rule="evenodd" d="M21.1295 5.03246C20.1529 4.05583 18.5695 4.05583 17.5928 5.03246L9.17451 13.4508L8.07064 12.3469L7.35625 11.6325L6.4062 10.6825C5.42957 9.70583 3.84613 9.70583 2.8695 10.6825C1.89287 11.6591 1.89287 13.2425 2.8695 14.2192L5.63781 16.9875L5.63325 16.992L7.75574 19.1145C8.53679 19.8956 9.80312 19.8956 10.5842 19.1145L13.2175 16.4812C13.4521 16.2466 13.4532 15.8666 13.22 15.6306C13.0113 15.4194 12.6853 15.3948 12.4493 15.5574L9.88917 18.1175C9.564 18.4427 9.0706 18.4971 8.68912 18.2808C8.60578 18.2358 8.52749 18.178 8.45708 18.1076L3.50733 13.1579C3.11681 12.7674 3.11681 12.1342 3.50733 11.7437L3.93867 11.3123C4.32919 10.9218 4.96235 10.9218 5.35288 11.3123L9.17808 15.1375L18.4346 5.88105C18.9442 5.37142 19.7705 5.37142 20.2801 5.88105C20.7897 6.39069 20.7897 7.21697 20.2801 7.7266L17.8568 10.1499C17.6947 10.3852 17.7186 10.7098 17.9282 10.9188C18.1639 11.1537 18.5453 11.1534 18.7806 10.9181L21.1295 8.56917C22.1062 7.59253 22.1062 6.0091 21.1295 5.03246Z" fill="#6ad798"></path></svg>